# xmcd CD database file
#
# Track frame offsets:
#	150
#	21995
#	45210
#	66620
#	86147
#	105147
#	121350
#	148685
#	166202
#	187792
#
# Disc length: 2903 seconds
#
# Revision: 1
# Processed by: cddbd v1.5.1PL0 Copyright (c) Steve Scherf et al.
# Submitted via: CDex 1.51
#
DISCID=7d0b550a
DTITLE=HUSH - II
DYEAR=2001
DGENRE=Hard Rock
TTITLE0=The Restless Ones
TTITLE1=Dont Turn Around
TTITLE2=Till We Become The Sun
TTITLE3=Dont Say Goodnight
TTITLE4=Is It Good Enough
TTITLE5=Another Girl
TTITLE6=Forever
TTITLE7=Like Love
TTITLE8=The Real Thing
TTITLE9=In My Dreams
EXTD=YEAR: 2001
EXTT0=
EXTT1=
EXTT2=
EXTT3=
EXTT4=
EXTT5=
EXTT6=
EXTT7=
EXTT8=
EXTT9=
PLAYORDER=
